<svg id="a70f8076-79c3-41e3-a420-a6c6301abda9" data-name="Calque 1" xmlns="http://www.w3.org/2000/svg" xmlns:xlink="http://www.w3.org/1999/xlink" width="3669.9" height="798.46" viewBox="0 0 3669.9 798.46">
  <defs>
    <style>
      .b0406138-2753-43e3-b880-7aab8b6f413c {
        fill: none;
      }

      .a9f342c1-8bc6-4a41-a8ad-21f43a6473d0 {
        fill: #fff;
      }

      .bebd0395-d760-4d3f-bf71-377e989fa950 {
        fill: url(#ebc4b906-f283-4e2e-b45e-c3f8184a5c90);
      }

      .bfa4b511-b48e-4d8f-8fac-86385943d3b3 {
        clip-path: url(#a20d32e0-d672-495e-b859-3a69c3f68424);
      }

      .a3014b0f-80b5-4654-adf7-7de9953d22d7 {
        fill: url(#b673802a-c0f2-4505-88fd-2c2fa191248e);
      }

      .edf6609c-8739-4845-80ce-f90e79270acc {
        fill: #fae82e;
      }
    </style>
    <linearGradient id="ebc4b906-f283-4e2e-b45e-c3f8184a5c90" data-name="Dégradé sans nom" x1="136.63" y1="-124.65" x2="535.86" y2="-124.65" gradientTransform="matrix(1, 0, 0, -1, 62.98, 274.59)" gradientUnits="userSpaceOnUse">
      <stop offset="0" stop-color="#11a7d9"/>
      <stop offset="1" stop-color="#0c83c6"/>
    </linearGradient>
    <clipPath id="a20d32e0-d672-495e-b859-3a69c3f68424" transform="translate(62.98 44.59)">
      <polygon class="b0406138-2753-43e3-b880-7aab8b6f413c" points="402.79 155.03 402.79 288.1 269.71 288.1 269.71 421.18 136.63 421.18 136.63 554.26 269.71 554.26 402.79 554.26 402.79 421.18 535.86 421.18 535.86 155.03 402.79 155.03"/>
    </clipPath>
    <linearGradient id="b673802a-c0f2-4505-88fd-2c2fa191248e" data-name="Dégradé sans nom 2" x1="-62.98" y1="-124.64" x2="735.48" y2="-124.64" xlink:href="#ebc4b906-f283-4e2e-b45e-c3f8184a5c90"/>
  </defs>
  <g>
    <path class="a9f342c1-8bc6-4a41-a8ad-21f43a6473d0" d="M2234.65,295.15c0,3-.53,5.25-2.89,11.29l-6.82,18.64h-10.63l5.25-20.21c-3.67-1.44-6.17-4.86-6.17-9.71A10.3,10.3,0,0,1,2224,284.4c6.17,0,10.63,4.45,10.63,10.75" transform="translate(62.98 44.59)"/>
    <rect class="a9f342c1-8bc6-4a41-a8ad-21f43a6473d0" x="2243.92" y="327.13" width="16.76" height="99.46"/>
    <path class="a9f342c1-8bc6-4a41-a8ad-21f43a6473d0" d="M2312.17,351.58H2256a19.43,19.43,0,0,0,7.71,12.53q6.24,4.62,15.48,4.62,11.79,0,19.44-7.77l9,10.32a30.17,30.17,0,0,1-12.2,8.72,48.34,48.34,0,0,1-37.4-1.74,33.83,33.83,0,0,1-13.88-13.07,36.92,36.92,0,0,1-4.89-19,37.35,37.35,0,0,1,4.76-18.83,33.74,33.74,0,0,1,13.21-13.07,38.49,38.49,0,0,1,19-4.69,37.6,37.6,0,0,1,18.7,4.62,32.78,32.78,0,0,1,12.87,13,39.47,39.47,0,0,1,4.62,19.37c0,1.16-.09,2.81-.27,5m-49.53-23.8a20,20,0,0,0-6.77,12.67h40.62A19.56,19.56,0,0,0,2276.25,323a20.23,20.23,0,0,0-13.61,4.75m20-45.5h19.7l-23.32,18.36h-14.48Z" transform="translate(62.98 44.59)"/>
    <path class="a9f342c1-8bc6-4a41-a8ad-21f43a6473d0" d="M2339.38,378.25a34.45,34.45,0,0,1-13.81-13.07,38.62,38.62,0,0,1,0-37.87,34.7,34.7,0,0,1,13.74-13,41.81,41.81,0,0,1,20-4.69,38.63,38.63,0,0,1,18.57,4.29,27.93,27.93,0,0,1,12,12.33l-12.87,7.51a20.45,20.45,0,0,0-7.71-7.44,22.49,22.49,0,0,0-25.67,3.62q-6.16,6.1-6.17,16.29t6.1,16.28q6.09,6.11,15.62,6.1a21.11,21.11,0,0,0,10.12-2.48,20.45,20.45,0,0,0,7.71-7.44l12.87,7.51a29,29,0,0,1-12.13,12.4,37.79,37.79,0,0,1-18.44,4.36,42,42,0,0,1-20-4.7" transform="translate(62.98 44.59)"/>
    <path class="a9f342c1-8bc6-4a41-a8ad-21f43a6473d0" d="M2413.92,378.25a34.12,34.12,0,0,1-13.61-13.07,39.1,39.1,0,0,1,0-37.87,34.35,34.35,0,0,1,13.61-13,43.45,43.45,0,0,1,39.27,0,34.42,34.42,0,0,1,13.61,13,36.56,36.56,0,0,1,4.89,18.9,37,37,0,0,1-4.89,19,34.12,34.12,0,0,1-13.61,13.07,43.45,43.45,0,0,1-39.27,0m34.85-15.81q6-6.17,6-16.22t-6-16.22a22,22,0,0,0-30.5,0q-6,6.17-6,16.22t6,16.22a20.25,20.25,0,0,0,15.22,6.16,20.47,20.47,0,0,0,15.28-6.16" transform="translate(62.98 44.59)"/>
    <rect class="a9f342c1-8bc6-4a41-a8ad-21f43a6473d0" x="2548.75" y="327.13" width="16.76" height="99.46"/>
    <path class="a9f342c1-8bc6-4a41-a8ad-21f43a6473d0" d="M2589.52,351.58h-56.17a19.47,19.47,0,0,0,7.71,12.53q6.24,4.62,15.48,4.62,11.79,0,19.44-7.77l9,10.32a30.17,30.17,0,0,1-12.2,8.72,48.34,48.34,0,0,1-37.4-1.74,33.7,33.7,0,0,1-13.88-13.07,36.92,36.92,0,0,1-4.89-19,37.45,37.45,0,0,1,4.76-18.83,33.67,33.67,0,0,1,13.21-13.07,38.49,38.49,0,0,1,19-4.69,37.6,37.6,0,0,1,18.7,4.62,32.72,32.72,0,0,1,12.87,13,39.47,39.47,0,0,1,4.62,19.37c0,1.16-.1,2.81-.27,5M2540,327.78a20,20,0,0,0-6.77,12.67h40.62A19.58,19.58,0,0,0,2553.6,323a20.21,20.21,0,0,0-13.61,4.76" transform="translate(62.98 44.59)"/>
    <polygon class="a9f342c1-8bc6-4a41-a8ad-21f43a6473d0" points="2703.43 327.13 2735.47 327.13 2735.47 340.54 2720.19 340.54 2720.19 439.2 2735.47 439.2 2735.47 452.6 2703.43 452.6 2703.43 327.13"/>
    <path class="a9f342c1-8bc6-4a41-a8ad-21f43a6473d0" d="M2761.76,378.12a19.86,19.86,0,0,1-7.17,3.62,32.52,32.52,0,0,1-8.92,1.2q-11.79,0-18.23-6.16t-6.44-18V324.37h-11.79V311H2721V294.61h16.76V311h19.17v13.4h-19.17v34.05q0,5.22,2.55,8t7.37,2.75a14.67,14.67,0,0,0,9.38-2.95Z" transform="translate(62.98 44.59)"/>
    <path class="a9f342c1-8bc6-4a41-a8ad-21f43a6473d0" d="M2838.17,351.58H2782a19.47,19.47,0,0,0,7.71,12.53q6.24,4.62,15.48,4.62,11.79,0,19.44-7.77l9,10.32a30.17,30.17,0,0,1-12.2,8.72,48.34,48.34,0,0,1-37.4-1.74,33.7,33.7,0,0,1-13.88-13.07,36.92,36.92,0,0,1-4.89-19,37.45,37.45,0,0,1,4.76-18.83,33.67,33.67,0,0,1,13.21-13.07,38.49,38.49,0,0,1,19-4.69,37.6,37.6,0,0,1,18.7,4.62,32.72,32.72,0,0,1,12.87,13,39.47,39.47,0,0,1,4.62,19.37c0,1.16-.09,2.81-.27,5m-49.53-23.8a20,20,0,0,0-6.77,12.67h40.62A19.58,19.58,0,0,0,2802.25,323a20.22,20.22,0,0,0-13.61,4.76" transform="translate(62.98 44.59)"/>
    <path class="a9f342c1-8bc6-4a41-a8ad-21f43a6473d0" d="M2865.38,378.25a34.45,34.45,0,0,1-13.81-13.07,38.62,38.62,0,0,1,0-37.87,34.7,34.7,0,0,1,13.74-13,41.81,41.81,0,0,1,20-4.69,38.63,38.63,0,0,1,18.57,4.29,27.93,27.93,0,0,1,12,12.33l-12.87,7.51a20.45,20.45,0,0,0-7.71-7.44,22.49,22.49,0,0,0-25.67,3.62q-6.16,6.1-6.17,16.29t6.1,16.28q6.09,6.11,15.62,6.1a21.11,21.11,0,0,0,10.12-2.48,20.45,20.45,0,0,0,7.71-7.44l12.87,7.51a29,29,0,0,1-12.13,12.4,37.79,37.79,0,0,1-18.44,4.36,42,42,0,0,1-20-4.7" transform="translate(62.98 44.59)"/>
    <path class="a9f342c1-8bc6-4a41-a8ad-21f43a6473d0" d="M2990.05,317.53q8.17,7.91,8.18,23.46v41h-16.76V343.14q0-9.39-4.42-14.14t-12.6-4.76q-9.24,0-14.61,5.56t-5.36,16V382h-16.76V282.54h16.76v36.19a27.31,27.31,0,0,1,10.26-6.77,37.68,37.68,0,0,1,13.6-2.35q13.53,0,21.71,7.92" transform="translate(62.98 44.59)"/>
    <polygon class="a9f342c1-8bc6-4a41-a8ad-21f43a6473d0" points="3096.23 452.6 3096.23 439.2 3111.38 439.2 3111.38 340.54 3096.23 340.54 3096.23 327.14 3128.14 327.14 3128.14 452.6 3096.23 452.6"/>
    <path class="a9f342c1-8bc6-4a41-a8ad-21f43a6473d0" d="M2257,452.86v99.46h-16.09v-9.25a25.93,25.93,0,0,1-10.25,7.64,34.63,34.63,0,0,1-13.48,2.55,37.67,37.67,0,0,1-18.56-4.56,32.78,32.78,0,0,1-12.94-12.93,38.7,38.7,0,0,1-4.69-19.24,38.3,38.3,0,0,1,4.69-19.17,32.88,32.88,0,0,1,12.94-12.87,37.67,37.67,0,0,1,18.56-4.56,34,34,0,0,1,13,2.41,26.25,26.25,0,0,1,10.06,7.24V452.85ZM2230,536.17a19.88,19.88,0,0,0,7.64-7.84,26.16,26.16,0,0,0,0-23.59,19.82,19.82,0,0,0-7.64-7.84,22.82,22.82,0,0,0-21.72,0,20,20,0,0,0-7.64,7.84,26.08,26.08,0,0,0,0,23.59,19.75,19.75,0,0,0,7.64,7.84,22.82,22.82,0,0,0,21.72,0" transform="translate(62.98 44.59)"/>
    <path class="a9f342c1-8bc6-4a41-a8ad-21f43a6473d0" d="M2344,521.9h-56.17a19.51,19.51,0,0,0,7.71,12.53q6.24,4.62,15.48,4.62,11.79,0,19.44-7.77l9,10.32a30.17,30.17,0,0,1-12.2,8.72,48.34,48.34,0,0,1-37.4-1.74,33.7,33.7,0,0,1-13.88-13.07,36.92,36.92,0,0,1-4.89-19,37.45,37.45,0,0,1,4.76-18.83A33.67,33.67,0,0,1,2289,484.64a38.49,38.49,0,0,1,19-4.69,37.6,37.6,0,0,1,18.7,4.62,32.72,32.72,0,0,1,12.87,13,39.47,39.47,0,0,1,4.62,19.37c0,1.16-.1,2.81-.27,5m-49.53-23.8a20,20,0,0,0-6.77,12.67h40.62A19.58,19.58,0,0,0,2308,493.34a20.21,20.21,0,0,0-13.61,4.76" transform="translate(62.98 44.59)"/>
    <rect class="a9f342c1-8bc6-4a41-a8ad-21f43a6473d0" x="2456.25" y="497.45" width="16.76" height="99.46"/>
    <path class="a9f342c1-8bc6-4a41-a8ad-21f43a6473d0" d="M2524.5,521.9h-56.16a19.43,19.43,0,0,0,7.71,12.53q6.24,4.62,15.48,4.62,11.79,0,19.44-7.77l9,10.32a30.17,30.17,0,0,1-12.2,8.72,48.34,48.34,0,0,1-37.4-1.74,33.7,33.7,0,0,1-13.88-13.07,36.92,36.92,0,0,1-4.89-19,37.45,37.45,0,0,1,4.76-18.83,33.74,33.74,0,0,1,13.21-13.07,38.49,38.49,0,0,1,19-4.69,37.6,37.6,0,0,1,18.7,4.62,32.72,32.72,0,0,1,12.87,13,39.47,39.47,0,0,1,4.62,19.37c0,1.16-.1,2.81-.28,5M2475,498.1a20,20,0,0,0-6.77,12.67h40.62a19.58,19.58,0,0,0-20.24-17.43A20.24,20.24,0,0,0,2475,498.1" transform="translate(62.98 44.59)"/>
    <polygon class="a9f342c1-8bc6-4a41-a8ad-21f43a6473d0" points="2645.39 596.92 2627.03 572.12 2608.53 596.92 2590.03 596.92 2617.91 560.59 2591.24 525.34 2609.87 525.34 2627.43 548.8 2644.99 525.34 2663.09 525.34 2636.28 560.32 2664.29 596.92 2645.39 596.92"/>
    <path class="a9f342c1-8bc6-4a41-a8ad-21f43a6473d0" d="M2670,484.5A32.86,32.86,0,0,1,2683,497.37a38.3,38.3,0,0,1,4.69,19.17,38.7,38.7,0,0,1-4.69,19.24A32.78,32.78,0,0,1,2670,548.72a38,38,0,0,1-18.7,4.56q-14.47,0-22.92-9.65v34.72h-16.76V480.76h16v9.38a25.89,25.89,0,0,1,10.26-7.64,34.58,34.58,0,0,1,13.47-2.55,37.88,37.88,0,0,1,18.7,4.55m-5.37,48.26q6-6.16,6-16.22t-6-16.22a20.26,20.26,0,0,0-15.21-6.17,21.59,21.59,0,0,0-10.86,2.75,19.88,19.88,0,0,0-7.64,7.84,26.18,26.18,0,0,0,0,23.6,19.82,19.82,0,0,0,7.64,7.84,21.59,21.59,0,0,0,10.86,2.75,20.3,20.3,0,0,0,15.21-6.17" transform="translate(62.98 44.59)"/>
    <path class="a9f342c1-8bc6-4a41-a8ad-21f43a6473d0" d="M2768.6,521.9h-56.17a19.47,19.47,0,0,0,7.71,12.53q6.24,4.62,15.48,4.62,11.79,0,19.44-7.77l9,10.32a30.17,30.17,0,0,1-12.2,8.72,48.34,48.34,0,0,1-37.4-1.74,33.7,33.7,0,0,1-13.88-13.07,36.92,36.92,0,0,1-4.89-19,37.45,37.45,0,0,1,4.76-18.83,33.67,33.67,0,0,1,13.21-13.07,38.49,38.49,0,0,1,19-4.69,37.6,37.6,0,0,1,18.7,4.62,32.78,32.78,0,0,1,12.87,13,39.47,39.47,0,0,1,4.62,19.37c0,1.16-.09,2.81-.27,5m-49.53-23.8a20,20,0,0,0-6.77,12.67h40.62a19.58,19.58,0,0,0-20.24-17.43,20.24,20.24,0,0,0-13.61,4.76" transform="translate(62.98 44.59)"/>
    <path class="a9f342c1-8bc6-4a41-a8ad-21f43a6473d0" d="M2824.37,479.94v15.95a21.13,21.13,0,0,0-3.89-.4q-9.78,0-15.28,5.7t-5.5,16.42v34.72h-16.76V480.75h15.95v10.46q7.24-11.26,25.48-11.27" transform="translate(62.98 44.59)"/>
    <path class="a9f342c1-8bc6-4a41-a8ad-21f43a6473d0" d="M2882.28,548.44a19.78,19.78,0,0,1-7.17,3.62,32.52,32.52,0,0,1-8.92,1.2q-11.79,0-18.23-6.16t-6.44-18V494.69h-11.79v-13.4h11.79V464.92h16.76v16.36h19.17v13.4h-19.17v34.05q0,5.22,2.55,8t7.37,2.75a14.67,14.67,0,0,0,9.38-3Z" transform="translate(62.98 44.59)"/>
    <path class="a9f342c1-8bc6-4a41-a8ad-21f43a6473d0" d="M2894.88,466.07a9.89,9.89,0,0,1,0-14.34,10.75,10.75,0,0,1,7.64-2.88,11.08,11.08,0,0,1,7.64,2.75,8.86,8.86,0,0,1,3.08,6.9,10.1,10.1,0,0,1-3,7.44,10.44,10.44,0,0,1-7.71,3,10.75,10.75,0,0,1-7.64-2.88m-.81,14.68h16.76v71.58h-16.76Z" transform="translate(62.98 44.59)"/>
    <path class="a9f342c1-8bc6-4a41-a8ad-21f43a6473d0" d="M2935.89,551a42.87,42.87,0,0,1-13.27-5.76l6.43-12.73a41.32,41.32,0,0,0,11.6,5.16,48,48,0,0,0,13.34,2q15,0,15-7.91,0-3.75-3.82-5.23a66.13,66.13,0,0,0-12.27-2.81,99,99,0,0,1-14.41-3.08,22.1,22.1,0,0,1-9.65-6.1q-4.09-4.35-4.09-12.13a19.07,19.07,0,0,1,8.51-16.29q8.51-6.09,23-6.1a66.71,66.71,0,0,1,14.74,1.67,41.45,41.45,0,0,1,12.07,4.49l-6.43,12.73a39.76,39.76,0,0,0-20.51-5.36c-4.91,0-8.65.74-11.19,2.21s-3.82,3.42-3.82,5.83q0,4,4.09,5.7a64.65,64.65,0,0,0,12.67,3.15,99,99,0,0,1,14.07,3.08,22.06,22.06,0,0,1,9.45,5.9q4,4.15,4,11.8,0,10.05-8.71,16.08t-23.73,6a65,65,0,0,1-17-2.28" transform="translate(62.98 44.59)"/>
    <path class="a9f342c1-8bc6-4a41-a8ad-21f43a6473d0" d="M3064.85,521.9h-56.17a19.51,19.51,0,0,0,7.71,12.53q6.24,4.62,15.48,4.62,11.79,0,19.44-7.77l9,10.32a30.17,30.17,0,0,1-12.2,8.72,48.34,48.34,0,0,1-37.4-1.74,33.7,33.7,0,0,1-13.88-13.07,36.92,36.92,0,0,1-4.89-19,37.35,37.35,0,0,1,4.76-18.83,33.67,33.67,0,0,1,13.21-13.07,38.49,38.49,0,0,1,19-4.69,37.6,37.6,0,0,1,18.7,4.62,32.78,32.78,0,0,1,12.87,13,39.47,39.47,0,0,1,4.62,19.37c0,1.16-.09,2.81-.27,5m-49.53-23.8a20,20,0,0,0-6.77,12.67h40.62a19.58,19.58,0,0,0-20.24-17.43,20.21,20.21,0,0,0-13.61,4.76" transform="translate(62.98 44.59)"/>
    <path class="a9f342c1-8bc6-4a41-a8ad-21f43a6473d0" d="M3184.29,452.86v99.46H3168.2v-9.25a25.93,25.93,0,0,1-10.25,7.64,34.63,34.63,0,0,1-13.48,2.55,37.67,37.67,0,0,1-18.56-4.56A32.78,32.78,0,0,1,3113,535.77a38.7,38.7,0,0,1-4.69-19.24,38.3,38.3,0,0,1,4.69-19.17,32.88,32.88,0,0,1,12.94-12.87,37.67,37.67,0,0,1,18.56-4.56,34.05,34.05,0,0,1,13,2.41,26.14,26.14,0,0,1,10.05,7.24V452.85Zm-26.95,83.31a19.88,19.88,0,0,0,7.64-7.84,26.16,26.16,0,0,0,0-23.59,19.82,19.82,0,0,0-7.64-7.84,22.82,22.82,0,0,0-21.72,0,20,20,0,0,0-7.64,7.84,26.16,26.16,0,0,0,0,23.59,19.75,19.75,0,0,0,7.64,7.84,22.82,22.82,0,0,0,21.72,0" transform="translate(62.98 44.59)"/>
    <path class="a9f342c1-8bc6-4a41-a8ad-21f43a6473d0" d="M3205.06,466.07a9.89,9.89,0,0,1,0-14.34,10.77,10.77,0,0,1,7.64-2.88,11.1,11.1,0,0,1,7.64,2.75,8.83,8.83,0,0,1,3.08,6.9,10.1,10.1,0,0,1-3,7.44,10.44,10.44,0,0,1-7.71,3,10.77,10.77,0,0,1-7.64-2.88m-.8,14.68H3221v71.58h-16.76Z" transform="translate(62.98 44.59)"/>
    <path class="a9f342c1-8bc6-4a41-a8ad-21f43a6473d0" d="M3312,480.74v60.72q0,37.8-38.61,37.8a71.76,71.76,0,0,1-19.57-2.61,41.61,41.61,0,0,1-15.28-7.57l7.51-12.6a35.79,35.79,0,0,0,11.87,6.23,46.62,46.62,0,0,0,14.54,2.35q11.79,0,17.29-5.36t5.49-16.35v-3.76a27.54,27.54,0,0,1-10.45,7.11,36.84,36.84,0,0,1-13.54,2.41,38.72,38.72,0,0,1-18.43-4.36,32.65,32.65,0,0,1-13-12.26,34.44,34.44,0,0,1-4.76-18.1,34,34,0,0,1,4.76-18,32.4,32.4,0,0,1,13-12.13,39.33,39.33,0,0,1,18.43-4.29,37.75,37.75,0,0,1,14.14,2.55,26.12,26.12,0,0,1,10.66,7.77v-9.52Zm-22.59,48.46q6.09-5.7,6.1-14.81a19,19,0,0,0-6.1-14.61q-6.11-5.64-15.62-5.63t-15.75,5.63a19,19,0,0,0-6.1,14.61q0,9.12,6.1,14.81t15.75,5.7q9.53,0,15.62-5.7" transform="translate(62.98 44.59)"/>
    <path class="a9f342c1-8bc6-4a41-a8ad-21f43a6473d0" d="M3332.79,466.07a9.91,9.91,0,0,1,0-14.34,10.7,10.7,0,0,1,7.61-2.88,11,11,0,0,1,7.61,2.75,8.85,8.85,0,0,1,3.07,6.9,10.1,10.1,0,0,1-3,7.44,10.36,10.36,0,0,1-7.67,3,10.71,10.71,0,0,1-7.61-2.88m-.8,14.68h16.68v71.58H3332Z" transform="translate(62.98 44.59)"/>
    <path class="a9f342c1-8bc6-4a41-a8ad-21f43a6473d0" d="M3411.76,548.44a19.78,19.78,0,0,1-7.17,3.62,32.52,32.52,0,0,1-8.92,1.2q-11.79,0-18.23-6.16t-6.44-18V494.69h-11.79v-13.4H3371V464.92h16.76v16.36h19.17v13.4h-19.17v34.05q0,5.22,2.55,8t7.37,2.75a14.67,14.67,0,0,0,9.38-3Z" transform="translate(62.98 44.59)"/>
    <path class="a9f342c1-8bc6-4a41-a8ad-21f43a6473d0" d="M3475.1,487.51q8.39,7.58,8.38,22.86v42h-15.82v-8.72a19.47,19.47,0,0,1-8.78,7.17,34.39,34.39,0,0,1-13.74,2.48,33.75,33.75,0,0,1-14.08-2.75,21.83,21.83,0,0,1-9.32-7.64,19.38,19.38,0,0,1-3.28-11.06,19,19,0,0,1,7.17-15.48q7.17-5.83,22.59-5.83h18.5v-1.07c0-5-1.5-8.85-4.49-11.52s-7.44-4-13.34-4a38.65,38.65,0,0,0-11.87,1.88,29.15,29.15,0,0,0-9.85,5.23l-6.57-12.2a40.59,40.59,0,0,1,13.54-6.57,60.2,60.2,0,0,1,16.75-2.28q15.84,0,24.21,7.56m-15.28,50.67a15.75,15.75,0,0,0,6.91-8.24v-8.31h-17.29q-14.47,0-14.48,9.52a8.55,8.55,0,0,0,3.62,7.24q3.61,2.68,10.05,2.68a21.59,21.59,0,0,0,11.19-2.89" transform="translate(62.98 44.59)"/>
    <rect class="a9f342c1-8bc6-4a41-a8ad-21f43a6473d0" x="3565.89" y="497.45" width="16.76" height="99.46"/>
    <path class="a9f342c1-8bc6-4a41-a8ad-21f43a6473d0" d="M3606.66,521.9h-56.17a19.43,19.43,0,0,0,7.71,12.53q6.24,4.62,15.48,4.62,11.79,0,19.44-7.77l9,10.32a30.17,30.17,0,0,1-12.2,8.72,48.34,48.34,0,0,1-37.4-1.74,33.7,33.7,0,0,1-13.88-13.07,36.92,36.92,0,0,1-4.89-19,37.45,37.45,0,0,1,4.75-18.83,33.67,33.67,0,0,1,13.21-13.07,38.49,38.49,0,0,1,19-4.69,37.6,37.6,0,0,1,18.7,4.62,32.78,32.78,0,0,1,12.87,13,39.47,39.47,0,0,1,4.62,19.37c0,1.16-.08,2.81-.26,5m-49.53-23.8a20,20,0,0,0-6.77,12.67H3591a19.58,19.58,0,0,0-20.24-17.43,20.24,20.24,0,0,0-13.61,4.76" transform="translate(62.98 44.59)"/>
    <path class="a9f342c1-8bc6-4a41-a8ad-21f43a6473d0" d="M2440.1,469.05c0,3-.53,5.25-2.89,11.29L2430.39,499h-10.63l5.25-20.21c-3.67-1.44-6.17-4.86-6.17-9.71a10.3,10.3,0,0,1,10.63-10.76c6.17,0,10.63,4.45,10.63,10.75" transform="translate(62.98 44.59)"/>
  </g>
  <g>
    <g>
      <polygon id="e5b5836f-7612-4022-a5f5-f79ac3833609" data-name="SVGID" class="bebd0395-d760-4d3f-bf71-377e989fa950" points="465.77 199.62 465.77 332.69 332.69 332.69 332.69 465.77 199.61 465.77 199.61 598.85 332.69 598.85 465.77 598.85 465.77 465.77 598.84 465.77 598.84 199.62 465.77 199.62"/>
      <g class="bfa4b511-b48e-4d8f-8fac-86385943d3b3">
        <polygon class="a3014b0f-80b5-4654-adf7-7de9953d22d7" points="399.23 0 798.46 399.23 399.23 798.46 0 399.23 399.23 0"/>
      </g>
    </g>
    <polygon class="edf6609c-8739-4845-80ce-f90e79270acc" points="393.25 123.64 393.25 256.71 260.17 256.71 260.17 389.79 127.09 389.79 127.09 123.64 393.25 123.64"/>
    <g>
      <path class="a9f342c1-8bc6-4a41-a8ad-21f43a6473d0" d="M1235.84,268.55l-74.15,243.06c-7.56,24.71-31.59,42.57-57,42.57h-1.38a59.74,59.74,0,0,1-57.67-42.57L987.28,324.16,928.92,511.61c-7.55,24.71-31.58,42.57-57.67,42.57h-1.38c-26.09,0-50.12-17.86-57.67-42.57L738.05,268.55A38.7,38.7,0,0,1,736,256.19c0-21.29,17.85-41.88,43.94-41.88,18.54,0,36.39,12.36,41.2,30.9l54.24,196.37,62.48-192.25c6.87-20.6,26.78-35,50.12-35,21.29,0,41.2,14.42,48.06,35l62.48,192.25,54.24-196.37c4.81-18.54,22.66-30.9,41.89-30.9,25.4,0,43.25,19.91,43.25,41.88a38.41,38.41,0,0,1-2.05,12.36" transform="translate(62.98 44.59)"/>
      <path class="a9f342c1-8bc6-4a41-a8ad-21f43a6473d0" d="M1387.51,130.54a52.16,52.16,0,0,1-52.18,52.18c-28.15,0-52.18-23.35-52.18-52.18s24-51.49,52.18-51.49c28.83,0,52.18,22.65,52.18,51.49m-52.18,423.64a43.07,43.07,0,0,1-43.25-43.25v-254c0-23.34,19.23-42.57,44.63-42.57a42.78,42.78,0,0,1,42.57,42.57V510.93c0,24-19.23,43.25-44,43.25" transform="translate(62.98 44.59)"/>
      <path class="a9f342c1-8bc6-4a41-a8ad-21f43a6473d0" d="M1585.52,554.26c-43.25,0-112.6-14.42-133.2-43.94a30.05,30.05,0,0,1-6.18-18.54c0-20.6,17.85-36.39,36.39-36.39a33.2,33.2,0,0,1,17.85,4.82c26.09,15.1,60.42,26.77,89.26,26.77,37.76,0,55.61-15.1,55.61-35.7,0-54.93-197.06-10.3-197.06-140.75,0-55.61,48.75-104.36,136-104.36,43.26,0,102.3,13.73,120.85,40.51a30.09,30.09,0,0,1,5.49,17.17c0,18.54-16.48,33-34.33,33a34.5,34.5,0,0,1-16.48-4.13,152.12,152.12,0,0,0-74.84-19.91c-31.59,0-52.18,14.42-52.18,33,0,49.43,196.37,8.24,196.37,142.13,0,60.4-51.49,106.4-143.5,106.4" transform="translate(62.98 44.59)"/>
    </g>
    <g>
      <path class="a9f342c1-8bc6-4a41-a8ad-21f43a6473d0" d="M1878.53,253.4a87.16,87.16,0,1,1,0-174.32V97.85a68.39,68.39,0,1,0,0,136.78Z" transform="translate(62.98 44.59)"/>
      <path class="a9f342c1-8bc6-4a41-a8ad-21f43a6473d0" d="M1899.15,253.41V234.64a68.39,68.39,0,0,0,0-136.78V79.08a87.17,87.17,0,0,1,0,174.33" transform="translate(62.98 44.59)"/>
      <path class="a9f342c1-8bc6-4a41-a8ad-21f43a6473d0" d="M1906.81,203.53c-7.94,6.55-17.28,10.87-28.57,10.87-18.67,0-32.75-10.87-32.75-28.15V186c0-12.4,6.69-21.18,19-26.76-4.74-6.69-6.82-12.82-6.82-19.51v-.28c0-13.38,10.73-25.64,29.54-25.64,16.58,0,27.45,10.87,27.45,24.53v.28c0,13.1-8.36,20.76-20.49,25.5l13,13c3.21-5,6.41-10.73,9.48-16.72l15.75,8.64a180.92,180.92,0,0,1-12.82,20.62L1933.85,204l-15.75,11Zm-12-12.26-18.67-19c-6.41,3.34-9.06,8.08-9.06,12.82v.27c0,6.83,5.71,11.43,13.66,11.43,4.88,0,9.61-2.09,14.07-5.57m1.12-51.43v-.28c0-5.58-3.77-9.06-9.2-9.06-5.71,0-9.47,4-9.47,9.9v.28c0,4.32,1.67,7.53,5.71,12.12,8.5-3.2,13-6.83,13-13" transform="translate(62.98 44.59)"/>
    </g>
  </g>
</svg>
